<svg width="42" height="42" viewBox="0 0 42 42" fill="none" xmlns="http://www.w3.org/2000/svg">
    <path d="M21 41.8332C32.5007 41.8206 41.8207 32.5006 41.8333 20.9999V20.5832C41.6043 9.13431 32.1779 0.0164503 20.7278 0.168375C9.2776 0.3203 0.0964661 9.68505 0.171284 21.136C0.246101 32.5869 9.54882 41.8309 21 41.8332ZM21 4.33321C30.2047 4.33321 37.6667 11.7951 37.6667 20.9999C37.6667 30.2046 30.2047 37.6665 21 37.6665C11.7953 37.6665 4.33334 30.2046 4.33334 20.9999C4.34367 11.7994 11.7995 4.34354 21 4.33321ZM24.0208 31.4165L26.9667 28.4686L19.6021 21.104L26.9667 13.7395L24.0208 10.7915L13.7083 21.104L24.0188 31.4165H24.0208Z" fill="#FFE454"/>
</svg>
