<svg width="42" height="42" viewBox="0 0 42 42" fill="none" xmlns="http://www.w3.org/2000/svg">
    <path d="M21 41.8333C9.49403 41.8333 0.166626 32.5059 0.166626 21C0.166626 9.49403 9.49403 0.166626 21 0.166626C32.5059 0.166626 41.8333 9.49403 41.8333 21C41.8207 32.5007 32.5007 41.8207 21 41.8333ZM21 4.33329C11.8445 4.33561 4.40509 11.7226 4.33796 20.8778C4.27083 30.0329 11.6012 37.5282 20.7556 37.6648C29.91 37.8013 37.4606 30.5281 37.6666 21.375V25.0895V21C37.6563 11.7995 30.2004 4.34363 21 4.33329ZM24.0208 31.2083L13.7083 20.8958L24.0208 10.5833L26.9666 13.5291L19.6 20.8958L26.9645 28.2625L24.0229 31.2083H24.0208Z"
          fill="url(#paint0_linear)"/>
    <defs>
        <linearGradient id="paint0_linear" x1="0.166627" y1="41.8333" x2="49.0559" y2="12.0043"
                        gradientUnits="userSpaceOnUse">
            <stop stop-color="#FD3D21"/>
            <stop offset="1" stop-color="#F9BD23"/>
        </linearGradient>
    </defs>
</svg>
