<svg width="42" height="42" viewBox="0 0 42 42" fill="none" xmlns="http://www.w3.org/2000/svg">
    <path d="M21 41.8332C9.49932 41.8206 0.179317 32.5006 0.166687 20.9999V20.5832C0.395711 9.13431 9.82207 0.0164503 21.2723 0.168375C32.7224 0.3203 41.9036 9.68505 41.8287 21.136C41.7539 32.5869 32.4512 41.8309 21 41.8332ZM21 4.33321C11.7953 4.33321 4.33335 11.7951 4.33335 20.9999C4.33335 30.2046 11.7953 37.6665 21 37.6665C30.2048 37.6665 37.6667 30.2046 37.6667 20.9999C37.6564 11.7994 30.2005 4.34354 21 4.33321ZM17.9792 31.4165L15.0334 28.4686L22.3979 21.104L15.0334 13.7395L17.9792 10.7915L28.2917 21.104L17.9813 31.4165H17.9792Z" fill="url(#paint0_linear)"/>
    <defs>
        <linearGradient id="paint0_linear" x1="0.166688" y1="41.8332" x2="49.0537" y2="12.0085" gradientUnits="userSpaceOnUse">
            <stop stop-color="#FD3D21"/>
            <stop offset="1" stop-color="#F9BD23"/>
        </linearGradient>
    </defs>
</svg>
