<svg width="50" height="50" viewBox="0 0 50 50" fill="none" xmlns="http://www.w3.org/2000/svg">
    <g>
        <path d="M36.4584 44.7917C35.8834 44.7917 35.4167 44.325 35.4167 43.75V41.6667C35.4167 41.0917 35.8834 40.625 36.4584 40.625C37.0334 40.625 37.5001 41.0917 37.5001 41.6667V43.75C37.5001 44.325 37.0334 44.7917 36.4584 44.7917Z"
              fill="#FFE454"/>
        <path d="M36.9791 42.7083H33.3332C32.7582 42.7083 32.2916 42.2417 32.2916 41.6667C32.2916 41.0917 32.7582 40.625 33.3332 40.625H36.9791C37.8416 40.625 38.5416 39.9229 38.5416 39.0625C38.5416 38.2021 37.8416 37.5 36.9791 37.5H35.9374C33.927 37.5 32.2916 35.8646 32.2916 33.8542C32.2916 31.8437 33.927 30.2083 35.9374 30.2083H39.5832C40.1582 30.2083 40.6249 30.675 40.6249 31.25C40.6249 31.825 40.1582 32.2916 39.5832 32.2916H35.9374C35.0749 32.2916 34.3749 32.9937 34.3749 33.8542C34.3749 34.7146 35.0749 35.4167 35.9374 35.4167H36.9791C38.9895 35.4167 40.6249 37.0521 40.6249 39.0625C40.6249 41.0729 38.9895 42.7083 36.9791 42.7083Z"
              fill="#FFE454"/>
        <path d="M36.4584 32.2917C35.8834 32.2917 35.4167 31.825 35.4167 31.25V29.1667C35.4167 28.5917 35.8834 28.125 36.4584 28.125C37.0334 28.125 37.5001 28.5917 37.5001 29.1667V31.25C37.5001 31.825 37.0334 32.2917 36.4584 32.2917Z"
              fill="#FFE454"/>
        <path d="M36.4583 50C28.9916 50 22.9166 43.925 22.9166 36.4584C22.9166 28.9917 28.9916 22.9167 36.4583 22.9167C43.925 22.9167 50 28.9917 50 36.4584C50 43.925 43.925 50 36.4583 50ZM36.4583 25C30.1395 25 25 30.1417 25 36.4584C25 42.775 30.1395 47.9167 36.4583 47.9167C42.777 47.9167 47.9166 42.775 47.9166 36.4584C47.9166 30.1417 42.777 25 36.4583 25Z"
              fill="#FFE454"/>
        <path d="M19.7917 43.75H5.20833C2.3375 43.75 0 41.4146 0 38.5417V11.4583C0 8.58542 2.3375 6.25 5.20833 6.25H9.375C9.95 6.25 10.4167 6.71667 10.4167 7.29167C10.4167 7.86667 9.95 8.33333 9.375 8.33333H5.20833C3.48542 8.33333 2.08333 9.73542 2.08333 11.4583V38.5417C2.08333 40.2646 3.48542 41.6667 5.20833 41.6667H19.7917C20.3667 41.6667 20.8333 42.1333 20.8333 42.7083C20.8333 43.2833 20.3667 43.75 19.7917 43.75Z"
              fill="#FFE454"/>
        <path d="M23.9584 12.5H11.4584C9.73546 12.5 8.33337 11.0979 8.33337 9.375V5.20833C8.33337 4.63333 8.80004 4.16667 9.37504 4.16667H12.6042C13.0896 1.79167 15.1917 0 17.7084 0C20.225 0 22.3271 1.79167 22.8125 4.16667H26.0417C26.6167 4.16667 27.0834 4.63333 27.0834 5.20833V9.375C27.0834 11.0979 25.6813 12.5 23.9584 12.5ZM10.4167 6.25V9.375C10.4167 9.94792 10.8834 10.4167 11.4584 10.4167H23.9584C24.5334 10.4167 25 9.94792 25 9.375V6.25H21.875C21.3 6.25 20.8334 5.78333 20.8334 5.20833C20.8334 3.48542 19.4313 2.08333 17.7084 2.08333C15.9855 2.08333 14.5834 3.48542 14.5834 5.20833C14.5834 5.78333 14.1167 6.25 13.5417 6.25H10.4167Z"
              fill="#FFE454"/>
        <path d="M28.125 18.75H7.29167C6.71667 18.75 6.25 18.2834 6.25 17.7084C6.25 17.1334 6.71667 16.6667 7.29167 16.6667H28.125C28.7 16.6667 29.1667 17.1334 29.1667 17.7084C29.1667 18.2834 28.7 18.75 28.125 18.75Z"
              fill="#FFE454"/>
        <path d="M21.875 25H7.29167C6.71667 25 6.25 24.5334 6.25 23.9584C6.25 23.3834 6.71667 22.9167 7.29167 22.9167H21.875C22.45 22.9167 22.9167 23.3834 22.9167 23.9584C22.9167 24.5334 22.45 25 21.875 25Z"
              fill="#FFE454"/>
        <path d="M17.7083 31.25H7.29167C6.71667 31.25 6.25 30.7833 6.25 30.2083C6.25 29.6334 6.71667 29.1667 7.29167 29.1667H17.7083C18.2833 29.1667 18.75 29.6334 18.75 30.2083C18.75 30.7833 18.2833 31.25 17.7083 31.25Z"
              fill="#FFE454"/>
        <path d="M34.375 18.75C33.8 18.75 33.3333 18.2833 33.3333 17.7083V11.4583C33.3333 9.73542 31.9312 8.33333 30.2083 8.33333H26.0417C25.4667 8.33333 25 7.86667 25 7.29167C25 6.71667 25.4667 6.25 26.0417 6.25H30.2083C33.0792 6.25 35.4167 8.58542 35.4167 11.4583V17.7083C35.4167 18.2833 34.95 18.75 34.375 18.75Z"
              fill="#FFE454"/>
    </g>
</svg>
