<svg width="50" height="50" viewBox="0 0 50 50" fill="none" xmlns="http://www.w3.org/2000/svg">
    <g>
        <path d="M24.7793 50C24.5064 50 24.2397 49.8917 24.0418 49.6959C23.796 49.45 23.6877 49.0959 23.7564 48.7563L25.2293 41.3917C25.271 41.1875 25.3668 41.0021 25.5147 40.8584L41.7189 24.6542C42.9356 23.4375 44.921 23.4375 46.1376 24.6542L49.0835 27.6C50.3022 28.8188 50.3022 30.8 49.0835 32.0188L32.8793 48.2229C32.7356 48.3688 32.5502 48.4667 32.346 48.5084L24.9814 49.9813C24.9147 49.9938 24.846 50 24.7793 50ZM27.2127 42.1063L26.1085 47.6292L31.6314 46.525L47.6126 30.5438C48.0189 30.1375 48.0189 29.4771 47.6126 29.0709L44.6668 26.125C44.2606 25.7188 43.6001 25.7188 43.1939 26.125L27.2127 42.1063ZM32.1439 47.4854H32.1647H32.1439Z"
              fill="#FFE454"/>
        <path d="M19.7917 43.75H5.20833C2.33542 43.75 0 41.4146 0 38.5417V11.4583C0 8.58541 2.33542 6.24999 5.20833 6.24999H9.375C9.95 6.24999 10.4167 6.71666 10.4167 7.29166C10.4167 7.86666 9.95 8.33333 9.375 8.33333H5.20833C3.48542 8.33333 2.08333 9.73541 2.08333 11.4583V38.5417C2.08333 40.2646 3.48542 41.6667 5.20833 41.6667H19.7917C20.3667 41.6667 20.8333 42.1333 20.8333 42.7083C20.8333 43.2833 20.3667 43.75 19.7917 43.75Z"
              fill="#FFE454"/>
        <path d="M34.375 25C33.8 25 33.3333 24.5333 33.3333 23.9583V11.4583C33.3333 9.73541 31.9312 8.33333 30.2083 8.33333H26.0417C25.4667 8.33333 25 7.86666 25 7.29166C25 6.71666 25.4667 6.24999 26.0417 6.24999H30.2083C33.0812 6.24999 35.4167 8.58541 35.4167 11.4583V23.9583C35.4167 24.5333 34.95 25 34.375 25Z"
              fill="#FFE454"/>
        <path d="M23.9583 12.5H11.4583C9.73534 12.5 8.33325 11.0979 8.33325 9.37499V5.20833C8.33325 4.63333 8.79992 4.16666 9.37492 4.16666H12.6041C13.0874 1.79166 15.1937 -7.62939e-06 17.7083 -7.62939e-06C20.2228 -7.62939e-06 22.3291 1.79166 22.8124 4.16666H26.0416C26.6166 4.16666 27.0833 4.63333 27.0833 5.20833V9.37499C27.0833 11.0979 25.6812 12.5 23.9583 12.5ZM10.4166 6.24999V9.37499C10.4166 9.94791 10.8853 10.4167 11.4583 10.4167H23.9583C24.5312 10.4167 24.9999 9.94791 24.9999 9.37499V6.24999H21.8749C21.2999 6.24999 20.8333 5.78333 20.8333 5.20833C20.8333 3.48541 19.4312 2.08333 17.7083 2.08333C15.9853 2.08333 14.5833 3.48541 14.5833 5.20833C14.5833 5.78333 14.1166 6.24999 13.5416 6.24999H10.4166Z"
              fill="#FFE454"/>
        <path d="M28.125 18.75H7.29167C6.71667 18.75 6.25 18.2833 6.25 17.7083C6.25 17.1333 6.71667 16.6667 7.29167 16.6667H28.125C28.7 16.6667 29.1667 17.1333 29.1667 17.7083C29.1667 18.2833 28.7 18.75 28.125 18.75Z"
              fill="#FFE454"/>
        <path d="M28.125 25H7.29167C6.71667 25 6.25 24.5334 6.25 23.9584C6.25 23.3834 6.71667 22.9167 7.29167 22.9167H28.125C28.7 22.9167 29.1667 23.3834 29.1667 23.9584C29.1667 24.5334 28.7 25 28.125 25Z"
              fill="#FFE454"/>
        <path d="M28.125 31.25H7.29167C6.71667 31.25 6.25 30.7833 6.25 30.2083C6.25 29.6333 6.71667 29.1667 7.29167 29.1667H28.125C28.7 29.1667 29.1667 29.6333 29.1667 30.2083C29.1667 30.7833 28.7 31.25 28.125 31.25Z"
              fill="#FFE454"/>
    </g>
</svg>
