<svg width="24" height="24" viewBox="0 0 24 24" fill="none" xmlns="http://www.w3.org/2000/svg">
    <path d="M22.1639 2.6857C20.9194 1.29236 19.2066 0.52507 17.3409 0.52507C15.8823 0.52507 14.3092 1.39289 13.1597 2.02695C12.7413 2.25794 12.169 2.57374 11.9999 2.59453C11.8315 2.57409 11.2622 2.25912 10.8448 2.02819C9.69826 1.39383 8.12806 0.52507 6.65915 0.52507C4.79342 0.52507 3.08057 1.29236 1.836 2.6857C0.652028 4.01125 0 5.75608 0 7.59873C0 10.231 0.945267 13.9744 2.52854 17.6126C3.23293 19.2313 3.98272 20.63 4.69683 21.6575C5.5468 22.8805 6.27622 23.475 6.92683 23.475C7.21554 23.475 7.74418 23.3525 8.04077 22.5322C8.32901 21.7351 8.58826 20.8202 8.86319 19.8497C9.59078 17.2816 10.4962 14.0852 11.954 14.0852H12.0461C12.6942 14.0852 13.2744 14.6403 13.8197 15.7824C14.3599 16.9138 14.7705 18.4181 15.1683 19.8748C15.4311 20.8378 15.6795 21.7472 15.9584 22.5301C16.249 23.3453 16.7717 23.4672 17.0577 23.4674C17.7051 23.4673 18.4338 22.8638 19.2856 21.6222C19.9979 20.5842 20.7493 19.1716 21.4586 17.5372C23.0499 13.8698 24 10.1545 24 7.59867C24 5.75602 23.3479 4.01119 22.1639 2.6857ZM16.8909 4.57529C16.876 4.57429 15.3689 4.50214 13.9969 4.13882C13.3783 3.97503 12.6468 3.64592 12.6468 3.54828C12.6468 3.45322 13.4415 2.99048 13.6332 2.8847C14.6888 2.30235 16.1344 1.50479 17.3409 1.50479C20.8959 1.50479 23.0203 4.6032 23.0203 7.59873C23.0203 9.99105 22.0775 13.6498 20.5597 17.1472C19.8849 18.7022 19.1455 20.0947 18.4778 21.0679C17.7073 22.1909 17.2087 22.5173 17.0577 22.4876C16.965 22.4693 16.9535 22.4036 16.8814 22.2011C16.6146 21.4524 16.3709 20.5601 16.113 19.6153C15.7044 18.1188 15.282 16.5712 14.7038 15.3602C13.9793 13.8429 13.1099 13.1054 12.0461 13.1054H11.954C10.9292 13.1054 10.0799 13.837 9.35785 15.3421C8.7815 16.5434 8.34379 18.0884 7.92057 19.5827C7.65083 20.5347 7.39611 21.4341 7.11948 22.199C7.0584 22.3679 7.03956 22.4781 6.92683 22.4952C6.83849 22.5086 6.46115 22.4793 5.50133 21.0983C4.83311 20.1369 4.09639 18.7601 3.42687 17.2216C1.91739 13.753 0.97972 10.0658 0.97972 7.59867C0.97972 4.60315 3.10413 1.50473 6.65915 1.50473C7.58322 1.50473 8.79758 1.92577 9.90752 2.63104C10.0703 2.73452 10.2995 2.91068 10.5212 3.08112C10.6097 3.14914 10.6968 3.21611 10.778 3.27718C11.0382 3.47206 11.3898 3.7269 11.8026 3.96996C11.9787 4.07385 12.1977 4.20319 12.4303 4.3019C13.32 4.67953 14.2632 4.871 15.2339 4.871C16.2229 4.871 16.8881 4.69508 16.8947 4.69302C16.8947 4.69302 17.0435 4.65368 17.0388 4.61498C17.0341 4.57629 16.8909 4.57529 16.8909 4.57529Z" fill="url(#paint0_linear)"/>
    <defs>
        <linearGradient id="paint0_linear" x1="3.27302e-07" y1="23.475" x2="27.4628" y2="5.95226" gradientUnits="userSpaceOnUse">
            <stop stop-color="#FD3D21"/>
            <stop offset="1" stop-color="#F9BD23"/>
        </linearGradient>
    </defs>
</svg>
