<svg width="24" height="24" viewBox="0 0 24 24" fill="none" xmlns="http://www.w3.org/2000/svg">
    <path d="M22.167 2.68237C20.9252 1.29203 19.2159 0.526283 17.354 0.526283C15.899 0.526283 14.3257 1.39441 13.1769 2.02826C12.7284 2.2757 12.1712 2.58312 11.9999 2.60107C11.8289 2.58342 11.2741 2.27647 10.8278 2.0295C9.68111 1.39512 8.111 0.526283 6.64597 0.526283C4.78414 0.526283 3.07487 1.29203 1.83302 2.68237C0.650918 4.00581 0 5.74797 0 7.5879C0 10.2227 0.94665 13.9711 2.53229 17.6146C3.2377 19.2357 3.9884 20.6361 4.70308 21.6645C5.54924 22.882 6.27254 23.4738 6.91443 23.4738C7.19605 23.4738 7.71212 23.3534 8.00331 22.5482C8.29213 21.7496 8.55197 20.8323 8.82709 19.861C9.55919 17.2768 10.4703 14.0608 11.9539 14.0608H12.0462C12.7085 14.0608 13.2987 14.6229 13.8508 15.7791C14.3935 16.9157 14.8057 18.4253 15.2043 19.8852C15.4678 20.8504 15.7166 21.762 15.9959 22.5461C16.2811 23.3463 16.7912 23.466 17.0697 23.4662H17.0702C17.7086 23.4661 18.4313 22.8652 19.2793 21.6293C19.9922 20.59 20.7445 19.1756 21.4547 17.5391C23.0485 13.8663 23.9999 10.1463 23.9999 7.58796C24 5.74797 23.3491 4.00581 22.167 2.68237ZM20.608 17.1716C19.9307 18.7323 19.1886 20.1298 18.5182 21.107C17.7405 22.2407 17.4182 22.5399 17.1388 22.5389C17.0027 22.5383 16.93 22.4169 16.8656 22.2362C16.598 21.4851 16.3535 20.5898 16.0948 19.6419C15.6854 18.1428 15.2621 16.5927 14.6839 15.3813C13.9631 13.8717 13.1002 13.1377 12.0463 13.1377H11.954C10.9391 13.1377 10.0965 13.8657 9.37806 15.3631C8.80159 16.5646 8.3631 18.1124 7.93895 19.6094C7.66843 20.5644 7.4129 21.4664 7.13524 22.2342C7.08246 22.3802 6.98563 22.5176 6.91443 22.5506C6.78141 22.6121 6.4156 22.5109 5.4611 21.1374C4.79016 20.172 4.05063 18.7901 3.37881 17.2462C1.86407 13.7656 0.923093 10.0648 0.923093 7.58778C0.923093 4.57042 3.06377 1.44926 6.64609 1.44926C7.70226 1.44926 8.9633 1.97625 9.91827 2.58301C10.1481 2.72901 10.5076 3.0176 10.7928 3.23198C11.0788 3.44617 11.4231 3.69261 11.8174 3.92469C12.0142 4.04088 12.22 4.16103 12.4429 4.25573C14.8348 5.27099 16.9265 4.71654 16.8936 4.61599C16.8626 4.52123 15.3888 4.5171 13.9945 4.14786C13.2528 3.9515 12.6498 3.59242 12.6371 3.47374C12.6267 3.37603 13.1821 3.01825 13.6965 2.74507C14.8463 2.13448 16.137 1.44926 17.354 1.44926C20.9364 1.44926 23.0771 4.57042 23.0771 7.58778C23.077 9.98983 22.1309 13.662 20.608 17.1716Z" fill="url(#paint0_linear)"/>
    <path d="M6.58585 3.13154C6.07126 3.13154 5.52744 3.23805 5.01284 3.43961C3.35305 4.08976 2.3731 5.56423 2.8283 6.72637C3.12716 7.48917 3.99417 7.96297 5.09113 7.96297C5.60561 7.96297 6.14954 7.85646 6.66408 7.65496C7.46667 7.34063 8.13595 6.82662 8.54864 6.20777C8.96328 5.58607 9.06984 4.93273 8.84868 4.36819C8.54982 3.60539 7.6827 3.13154 6.58585 3.13154Z" fill="url(#paint1_linear)"/>
    <defs>
        <linearGradient id="paint0_linear" x1="3.27301e-07" y1="23.4738" x2="27.4611" y2="5.95035" gradientUnits="userSpaceOnUse">
            <stop stop-color="#FD3D21"/>
            <stop offset="1" stop-color="#F9BD23"/>
        </linearGradient>
        <linearGradient id="paint1_linear" x1="2.7168" y1="7.96297" x2="8.91616" y2="3.07419" gradientUnits="userSpaceOnUse">
            <stop stop-color="#FD3D21"/>
            <stop offset="1" stop-color="#F9BD23"/>
        </linearGradient>
    </defs>
</svg>
