<svg width="24" height="24" viewBox="0 0 24 24" fill="none" xmlns="http://www.w3.org/2000/svg">
    <path d="M22.1671 2.51854C20.9251 1.10382 19.2161 0.324677 17.3541 0.324677C15.8993 0.324677 14.3258 1.20802 13.1771 1.85304C12.7286 2.10479 12.1715 2.4176 12 2.43585C11.829 2.4179 11.2742 2.10558 10.8278 1.85425C9.68135 1.20875 8.1111 0.324677 6.64609 0.324677C4.78431 0.324677 3.07497 1.10382 1.83313 2.51854C0.651057 3.86526 0 5.638 0 7.51036C0 10.1914 0.946574 14.0056 2.53236 17.7132C3.23775 19.3627 3.98849 20.7878 4.70307 21.8343C5.54918 23.0732 6.27253 23.6754 6.9144 23.6754C7.19608 23.6754 7.7121 23.553 8.00338 22.7335C8.29213 21.9209 8.55211 20.9874 8.82707 19.9991C9.55925 17.3696 10.4703 14.097 11.9539 14.097H12.0461C12.7085 14.097 13.2988 14.6689 13.8508 15.8455C14.3935 17.002 14.8057 18.5381 15.2042 20.0237C15.4677 21.0059 15.7166 21.9336 15.9961 22.7314C16.2813 23.5458 16.7912 23.6675 17.0698 23.6677H17.0704C17.7088 23.6676 18.4315 23.0562 19.2794 21.7985C19.9925 20.7409 20.7446 19.3017 21.4548 17.6364C23.0486 13.8991 24 10.1136 24 7.51036C24 5.638 23.349 3.86526 22.1671 2.51854ZM20.608 17.2625C19.9308 18.8504 19.1887 20.2727 18.5182 21.2671C17.7405 22.4206 17.2451 22.7641 17.0704 22.7283C17.0153 22.7171 16.9302 22.6 16.8656 22.4162C16.5978 21.6518 16.3534 20.7408 16.0947 19.7762C15.6854 18.2508 15.2623 16.6733 14.6839 15.4406C13.963 13.9044 13.1003 13.1577 12.0461 13.1577H11.9539C10.9391 13.1577 10.0965 13.8984 9.37803 15.4222C8.80157 16.6448 8.36309 18.2198 7.93901 19.7429C7.6684 20.7148 7.41283 21.6328 7.13527 22.4139C7.0825 22.5623 6.98917 22.7116 6.9144 22.7359C6.82839 22.7639 6.41561 22.6955 5.46111 21.2979C4.79017 20.3156 4.05056 18.9093 3.37871 17.3382C1.86401 13.7967 0.923121 10.0307 0.923121 7.51024C0.923121 6.9024 1.00732 6.29057 1.16962 5.6999L2.03743 7.20481C2.15621 7.41092 2.42561 7.56059 2.67779 7.56059C2.70976 7.56059 2.74095 7.55817 2.77081 7.55333L5.9905 7.03193C6.11386 7.01211 6.22919 7.04723 6.30511 7.12732C6.36943 7.19532 6.40195 7.291 6.39614 7.39678L6.21354 10.7381C6.20707 10.8566 6.24237 10.9628 6.31261 11.0372C6.4008 11.1303 6.53952 11.1657 6.68447 11.131L9.2757 10.5106C9.30925 10.5025 9.34358 10.4985 9.37761 10.4985C9.57974 10.4985 9.7592 10.6415 9.80429 10.8385L10.192 12.5319C10.2341 12.7167 10.2701 12.7422 10.3026 12.7422C10.3511 12.7422 10.3747 12.6767 10.384 12.5158L10.5446 9.70059C10.5522 9.56695 10.507 9.4385 10.4173 9.33895C10.3276 9.23934 10.2045 9.18101 10.0708 9.17472L8.53796 9.10303C8.42106 9.09759 8.31764 9.04712 8.24662 8.96105C8.17565 8.87497 8.14579 8.76375 8.16266 8.64788L8.66037 5.23386C8.67868 5.10826 8.64858 4.99263 8.57562 4.90819C8.49426 4.81401 8.36938 4.76868 8.2257 4.78451L4.93379 5.15371C4.81127 5.16756 4.70573 5.12978 4.63876 5.05138C4.57855 4.98072 4.55468 4.88238 4.57196 4.7746L5.09947 1.47725C5.57935 1.33913 6.09561 1.26388 6.64627 1.26388C7.70243 1.26388 8.9635 1.79997 9.91835 2.41741C10.1482 2.56605 10.5078 2.85963 10.7931 3.07784C11.079 3.29575 11.4233 3.54659 11.8174 3.78269C12.0142 3.90092 12.2201 4.02321 12.4432 4.11956C14.835 5.15269 16.9059 4.51251 16.8374 4.36339C16.781 4.24063 15.3887 4.38551 13.9947 4.00979C13.2529 3.81001 12.5855 3.49159 12.5806 3.37179C12.576 3.25519 13.1133 2.96154 13.623 2.6754C14.684 2.07971 16.1371 1.26394 17.3543 1.26394C20.9368 1.26394 23.0774 4.43986 23.0774 7.5103C23.077 9.95452 22.1308 13.6913 20.608 17.2625Z" fill="url(#paint0_linear)"/>
    <defs>
        <linearGradient id="paint0_linear" x1="3.27302e-07" y1="23.6754" x2="27.7359" y2="6.28216" gradientUnits="userSpaceOnUse">
            <stop stop-color="#FD3D21"/>
            <stop offset="1" stop-color="#F9BD23"/>
        </linearGradient>
    </defs>
</svg>
