<svg width="64" height="39" viewBox="0 0 64 39" fill="none" xmlns="http://www.w3.org/2000/svg">
    <path d="M31.7 33.4996C35.5 29.9996 37.9 24.9996 37.9 19.4996C37.9 13.8996 35.5 8.89961 31.7 5.49961C28.3 2.49961 23.9 0.599609 19 0.599609C8.5 0.599609 0 9.09961 0 19.4996C0 29.9996 8.5 38.4996 19 38.4996C23.9 38.3996 28.3 36.4996 31.7 33.4996Z" fill="#3362AB"/>
    <path d="M31.7 33.5C35.5 30 37.9 25 37.9 19.5C37.9 13.9 35.5 8.9 31.7 5.5" fill="#3362AB"/>
    <path d="M31.7 33.5C35.5 30 37.9 25 37.9 19.5C37.9 13.9 35.5 8.9 31.7 5.5" stroke="#3362AB" stroke-width="0.3097"/>
    <path d="M44.4001 0.5C39.5001 0.5 35 2.39999 31.7 5.39999C31 5.99999 30.4 6.69999 29.8 7.39999H33.6C34.1 7.99999 34.6 8.69999 35 9.39999H28.3C27.9 9.99999 27.5 10.7 27.2 11.4H36.1C36.4 12.1 36.7001 12.7 36.9001 13.4H26.4001C26.2001 14.1 26 14.7 25.8 15.4H37.4001C37.7001 16.7 37.8 18 37.8 19.4C37.8 21.5 37.5 23.5 36.8 25.4H26.3C26.5 26.1 26.8 26.8 27.1 27.4H36C35.7 28.1 35.3001 28.8 34.9001 29.4H28.2C28.6 30.1 29.1 30.8 29.6 31.4H33.4001C32.8001 32.1 32.2 32.8 31.5 33.4C34.9 36.4 39.3 38.3 44.2 38.3C54.7 38.3 63.1 29.8 63.1 19.3C63.4 9 54.9001 0.5 44.4001 0.5Z" fill="#C9191B"/>
    <path d="M16.6 24.1H14.2L15.6 16.7L12.4 24.1H10.3L9.90002 16.8L8.5 24.1H6.40002L8.20001 14.5H11.9L12.1 20.5L14.7 14.5H18.5L16.6 24.1Z" fill="white"/>
    <path d="M43 24.0996C42.4 24.2996 41.8 24.3996 41.3 24.3996C40.1 24.3996 39.4 23.7996 39.4 22.6996C39.4 22.4996 39.4 22.1996 39.5 21.9996L39.6 21.1996L39.7 20.5996L40.8 14.5996H43.1L42.8 16.3996H44L43.7 18.2996H42.5L41.9 21.5996C41.9 21.6996 41.9 21.8996 41.9 21.8996C41.9 22.2996 42.2 22.4996 42.7 22.4996C43 22.4996 43.2 22.4996 43.3 22.3996L43 24.0996Z" fill="white"/>
    <path d="M49.8 16.3998C49.6 16.2998 49.6 16.2998 49.5 16.2998C49.4 16.2998 49.3 16.2998 49.3 16.2998C49.2 16.2998 49.1 16.2998 49 16.2998C48.2 16.2998 47.7001 16.5998 46.9001 17.5998L47.1 16.3998H45.2L43.8 24.1998H46.2C47 19.3998 47.4 18.5998 48.5 18.5998C48.6 18.5998 48.7 18.5998 48.8 18.5998L49.1 18.6998L49.8 16.3998Z" fill="white"/>
    <path d="M33.6 18.8002C33.6 19.8002 34.2 20.5002 35.4 21.0002C36.4 21.4002 36.5 21.5002 36.5 21.9002C36.5 22.4002 36.1 22.6002 35.1 22.6002C34.4 22.6002 33.7 22.5002 33 22.3002L32.7 24.1002H32.8L33.2 24.2002C33.3 24.2002 33.6 24.3002 33.8 24.3002C34.4 24.3002 34.8 24.4002 35.1 24.4002C37.6 24.4002 38.8 23.6002 38.8 21.8002C38.8 20.7002 38.3 20.1002 37.1 19.6002C36.1 19.2002 36 19.1002 36 18.7002C36 18.3002 36.4 18.1002 37.2 18.1002C37.7 18.1002 38.3 18.1002 38.9 18.2002L39.2 16.4002C38.6 16.3002 37.7 16.2002 37.1 16.2002C34.5 16.2002 33.6 17.4002 33.6 18.8002Z" fill="white"/>
    <path d="M22.6 20.7002C22.3 20.7002 22.2 20.7002 22.1 20.7002C20.8 20.7002 20.1 21.1002 20.1 21.9002C20.1 22.4002 20.4001 22.7002 20.9001 22.7002C21.8001 22.6002 22.5 21.8002 22.6 20.7002ZM24.3 24.1002H22.3L22.4001 23.3002C21.8001 23.9002 21.0001 24.2002 19.9001 24.2002C18.6001 24.2002 17.8 23.3002 17.8 22.1002C17.8 20.2002 19.3001 19.1002 21.9001 19.1002C22.2001 19.1002 22.5001 19.1002 22.9001 19.2002C23.0001 18.9002 23 18.8002 23 18.7002C23 18.2002 22.6 18.0002 21.5 18.0002C20.8 18.0002 20.1 18.1002 19.6 18.2002L19.3 18.3002L19.1 18.4002L19.4001 16.6002C20.6001 16.3002 21.3 16.2002 22.2 16.2002C24.2 16.2002 25.3 17.0002 25.3 18.5002C25.3 18.9002 25.3 19.2002 25.1 20.0002L24.6 22.8002L24.5 23.3002L24.4001 23.7002V24.0002L24.3 24.1002Z" fill="white"/>
    <path d="M30.8 19.2996C30.8 19.0996 30.8 18.9996 30.8 18.8996C30.8 18.2996 30.4 17.8996 29.7 17.8996C28.9 17.8996 28.4 18.3996 28.2 19.2996H30.8ZM32 23.9996C31.2 24.1996 30.4 24.2996 29.6 24.2996C27 24.2996 25.6 23.0996 25.6 20.7996C25.6 18.0996 27.3 16.0996 29.7 16.0996C31.6 16.0996 32.9 17.1996 32.9 18.8996C32.9 19.4996 32.8 19.9996 32.6 20.7996H27.9C27.9 20.8996 27.9 20.9996 27.9 20.9996C27.9 21.8996 28.6 22.3996 30 22.3996C30.8 22.3996 31.6 22.1996 32.5 21.8996L32 23.9996Z" fill="white"/>
    <path d="M54.7 19.6002C54.7 18.8002 54.4 18.0002 53.4 18.0002C52.2 18.0002 51.5 19.4002 51.5 20.7002C51.5 21.8002 52 22.5002 52.9 22.5002C53.4 22.5002 54.5 21.8002 54.7 20.6002C54.7 20.3002 54.7 19.9002 54.7 19.6002ZM57.2 20.6002C56.8 23.2002 55 24.4002 52.6 24.4002C49.9 24.4002 48.9 22.8002 48.9 20.8002C48.9 18.0002 50.7 16.2002 53.5 16.2002C56 16.2002 57.2 17.7002 57.2 19.7002C57.3 20.1002 57.3 20.1002 57.2 20.6002Z" fill="white"/>
</svg>
