<svg width="100" height="100" viewBox="0 0 100 100" fill="none" xmlns="http://www.w3.org/2000/svg">
    <path d="M50 91.6666C26.9881 91.6666 8.33331 73.0118 8.33331 49.9999C8.33331 26.9881 26.9881 8.33325 50 8.33325C73.0118 8.33325 91.6667 26.9881 91.6667 49.9999C91.6414 73.0013 73.0014 91.6413 50 91.6666ZM16.6666 50.7166C16.8638 69.0551 31.8379 83.7897 50.1772 83.6916C68.5165 83.5925 83.3314 68.6978 83.3314 50.3582C83.3314 32.0187 68.5165 17.124 50.1772 17.0249C31.8379 16.9268 16.8638 31.6614 16.6666 49.9999V50.7166ZM41.6666 68.7499V31.2499L66.6666 49.9999L41.6666 68.7499Z" fill="url(#paint0_linear)"/>
    <defs>
        <linearGradient id="paint0_linear" x1="8.33331" y1="91.6666" x2="106.112" y2="32.0086" gradientUnits="userSpaceOnUse">
            <stop stop-color="#FD3D21"/>
            <stop offset="1" stop-color="#F9BD23"/>
        </linearGradient>
    </defs>
</svg>
