<svg width="84" height="84" viewBox="0 0 84 84" fill="none" xmlns="http://www.w3.org/2000/svg">
    <path d="M41.9999 83.6667C18.9881 83.6667 0.333252 65.0119 0.333252 42C0.333252 18.9882 18.9881 0.333374 41.9999 0.333374C65.0118 0.333374 83.6666 18.9882 83.6666 42C83.6413 65.0014 65.0013 83.6415 41.9999 83.6667ZM8.66659 42.7167C8.86374 61.0552 23.8379 75.7898 42.1772 75.6917C60.5165 75.5927 75.3313 60.6979 75.3313 42.3584C75.3313 24.0188 60.5165 9.1241 42.1772 9.02503C23.8379 8.92695 8.86374 23.6615 8.66659 42V42.7167ZM33.6666 60.75V23.25L58.6666 42L33.6666 60.75Z" fill="#FFE454"/>
</svg>
