<svg width="50" height="50" viewBox="0 0 50 50" fill="none" xmlns="http://www.w3.org/2000/svg">
    <g clip-path="url(#clip0)">
        <path d="M37.5 50C37.3625 50 37.225 49.9729 37.0958 49.9188C36.6 49.7083 25 44.6958 25 34.45V25.7438C25 25.2958 25.2854 24.9 25.7083 24.7563L37.1667 20.8875C37.3833 20.8146 37.6187 20.8146 37.8333 20.8875L49.2917 24.7563C49.7146 24.8979 50 25.2958 50 25.7438V34.45C50 44.6958 38.4 49.7083 37.9042 49.9188C37.775 49.9729 37.6375 50 37.5 50ZM27.0833 26.4938V34.45C27.0833 42.3333 35.5312 46.8625 37.5 47.8104C39.4667 46.8604 47.9167 42.3125 47.9167 34.45V26.4938L37.5 22.975L27.0833 26.4938Z" fill="url(#paint0_linear)"/>
        <path d="M36.4584 39.5834C36.4396 39.5834 36.4188 39.5834 36.4021 39.5813C36.1042 39.5646 35.8313 39.425 35.6459 39.1917L31.4792 33.9834C31.1209 33.5334 31.1917 32.8792 31.6417 32.5188C32.0959 32.1625 32.75 32.2354 33.1063 32.6813L36.5438 36.9792L43.0125 30.5125C43.4188 30.1063 44.0792 30.1063 44.4854 30.5125C44.8917 30.9188 44.8917 31.5792 44.4854 31.9854L37.1938 39.2771C37 39.4729 36.7334 39.5834 36.4584 39.5834Z" fill="url(#paint1_linear)"/>
        <path d="M19.7917 43.75H5.20833C2.33542 43.75 0 41.4146 0 38.5417V11.4583C0 8.58542 2.33542 6.25 5.20833 6.25H9.375C9.95 6.25 10.4167 6.71667 10.4167 7.29167C10.4167 7.86667 9.95 8.33333 9.375 8.33333H5.20833C3.48542 8.33333 2.08333 9.73542 2.08333 11.4583V38.5417C2.08333 40.2646 3.48542 41.6667 5.20833 41.6667H19.7917C20.3667 41.6667 20.8333 42.1333 20.8333 42.7083C20.8333 43.2833 20.3667 43.75 19.7917 43.75Z" fill="url(#paint2_linear)"/>
        <path d="M34.375 17.7083C33.8 17.7083 33.3333 17.2417 33.3333 16.6667V11.4583C33.3333 9.73542 31.9312 8.33333 30.2083 8.33333H26.0417C25.4667 8.33333 25 7.86667 25 7.29167C25 6.71667 25.4667 6.25 26.0417 6.25H30.2083C33.0812 6.25 35.4167 8.58542 35.4167 11.4583V16.6667C35.4167 17.2417 34.95 17.7083 34.375 17.7083Z" fill="url(#paint3_linear)"/>
        <path d="M23.9584 12.5H11.4584C9.73546 12.5 8.33337 11.0979 8.33337 9.375V5.20833C8.33337 4.63333 8.80004 4.16667 9.37504 4.16667H12.6042C13.0875 1.79167 15.1938 0 17.7084 0C20.223 0 22.3292 1.79167 22.8125 4.16667H26.0417C26.6167 4.16667 27.0834 4.63333 27.0834 5.20833V9.375C27.0834 11.0979 25.6813 12.5 23.9584 12.5ZM10.4167 6.25V9.375C10.4167 9.94792 10.8855 10.4167 11.4584 10.4167H23.9584C24.5313 10.4167 25 9.94792 25 9.375V6.25H21.875C21.3 6.25 20.8334 5.78333 20.8334 5.20833C20.8334 3.48542 19.4313 2.08333 17.7084 2.08333C15.9855 2.08333 14.5834 3.48542 14.5834 5.20833C14.5834 5.78333 14.1167 6.25 13.5417 6.25H10.4167Z" fill="url(#paint4_linear)"/>
        <path d="M28.125 18.75H7.29167C6.71667 18.75 6.25 18.2834 6.25 17.7084C6.25 17.1334 6.71667 16.6667 7.29167 16.6667H28.125C28.7 16.6667 29.1667 17.1334 29.1667 17.7084C29.1667 18.2834 28.7 18.75 28.125 18.75Z" fill="url(#paint5_linear)"/>
        <path d="M19.7917 25H7.29167C6.71667 25 6.25 24.5334 6.25 23.9584C6.25 23.3834 6.71667 22.9167 7.29167 22.9167H19.7917C20.3667 22.9167 20.8333 23.3834 20.8333 23.9584C20.8333 24.5334 20.3667 25 19.7917 25Z" fill="url(#paint6_linear)"/>
        <path d="M19.7917 31.25H7.29167C6.71667 31.25 6.25 30.7833 6.25 30.2083C6.25 29.6334 6.71667 29.1667 7.29167 29.1667H19.7917C20.3667 29.1667 20.8333 29.6334 20.8333 30.2083C20.8333 30.7833 20.3667 31.25 19.7917 31.25Z" fill="url(#paint7_linear)"/>
    </g>
    <defs>
        <linearGradient id="paint0_linear" x1="25" y1="50" x2="56.6087" y2="33.4698" gradientUnits="userSpaceOnUse">
            <stop stop-color="#FD3D21"/>
            <stop offset="1" stop-color="#F9BD23"/>
        </linearGradient>
        <linearGradient id="paint1_linear" x1="31.251" y1="39.5834" x2="43.5235" y2="28.7702" gradientUnits="userSpaceOnUse">
            <stop stop-color="#FD3D21"/>
            <stop offset="1" stop-color="#F9BD23"/>
        </linearGradient>
        <linearGradient id="paint2_linear" x1="2.84116e-07" y1="43.75" x2="30.0875" y2="33.5514" gradientUnits="userSpaceOnUse">
            <stop stop-color="#FD3D21"/>
            <stop offset="1" stop-color="#F9BD23"/>
        </linearGradient>
        <linearGradient id="paint3_linear" x1="25" y1="17.7083" x2="37.8262" y2="10.5941" gradientUnits="userSpaceOnUse">
            <stop stop-color="#FD3D21"/>
            <stop offset="1" stop-color="#F9BD23"/>
        </linearGradient>
        <linearGradient id="paint4_linear" x1="8.33337" y1="12.5" x2="24.7625" y2="-2.53594" gradientUnits="userSpaceOnUse">
            <stop stop-color="#FD3D21"/>
            <stop offset="1" stop-color="#F9BD23"/>
        </linearGradient>
        <linearGradient id="paint5_linear" x1="6.25" y1="18.75" x2="7.05139" y2="13.3715" gradientUnits="userSpaceOnUse">
            <stop stop-color="#FD3D21"/>
            <stop offset="1" stop-color="#F9BD23"/>
        </linearGradient>
        <linearGradient id="paint6_linear" x1="6.25" y1="25" x2="7.47039" y2="19.7879" gradientUnits="userSpaceOnUse">
            <stop stop-color="#FD3D21"/>
            <stop offset="1" stop-color="#F9BD23"/>
        </linearGradient>
        <linearGradient id="paint7_linear" x1="6.25" y1="31.25" x2="7.47036" y2="26.0379" gradientUnits="userSpaceOnUse">
            <stop stop-color="#FD3D21"/>
            <stop offset="1" stop-color="#F9BD23"/>
        </linearGradient>
        <clipPath id="clip0">
            <rect width="50" height="50" fill="white"/>
        </clipPath>
    </defs>
</svg>
