<svg width="51" height="50" viewBox="0 0 51 50" fill="none" xmlns="http://www.w3.org/2000/svg">
    <g>
        <path d="M36.6892 50C29.1752 50 23.0618 43.925 23.0618 36.4584C23.0618 28.9917 29.1752 22.9167 36.6892 22.9167C44.2031 22.9167 50.3165 28.9917 50.3165 36.4584C50.3165 43.925 44.2031 50 36.6892 50ZM36.6892 25C30.3304 25 25.1583 30.1417 25.1583 36.4584C25.1583 42.775 30.3304 47.9167 36.6892 47.9167C43.0479 47.9167 48.22 42.775 48.22 36.4584C48.22 30.1417 43.0479 25 36.6892 25Z"
              fill="#FFE454"/>
        <path d="M34.5927 41.6667C34.3159 41.6667 34.0476 41.5563 33.8505 41.3625L29.6574 37.1959C29.2486 36.7896 29.2486 36.1292 29.6574 35.723C30.0663 35.3167 30.7309 35.3167 31.1397 35.723L34.5402 39.1021L41.1401 31.6063C41.5217 31.1709 42.1842 31.1292 42.6202 31.5084C43.0563 31.8875 43.1003 32.5438 42.7188 32.9771L35.3809 41.3104C35.1902 41.5271 34.9155 41.6563 34.6262 41.6667C34.6157 41.6667 34.6031 41.6667 34.5927 41.6667Z"
              fill="#FFE454"/>
        <path d="M19.9169 43.75H5.2413C2.35229 43.75 0 41.4146 0 38.5417V11.4583C0 8.58541 2.35229 6.24999 5.2413 6.24999H9.43434C10.013 6.24999 10.4826 6.71666 10.4826 7.29166C10.4826 7.86666 10.013 8.33333 9.43434 8.33333H5.2413C3.50748 8.33333 2.09652 9.73541 2.09652 11.4583V38.5417C2.09652 40.2646 3.50748 41.6667 5.2413 41.6667H19.9169C20.4956 41.6667 20.9652 42.1333 20.9652 42.7083C20.9652 43.2833 20.4956 43.75 19.9169 43.75Z"
              fill="#FFE454"/>
        <path d="M34.5925 18.75C34.0139 18.75 33.5443 18.2833 33.5443 17.7083V11.4583C33.5443 9.73541 32.1333 8.33333 30.3995 8.33333H26.2065C25.6278 8.33333 25.1582 7.86666 25.1582 7.29166C25.1582 6.71666 25.6278 6.24999 26.2065 6.24999H30.3995C33.2885 6.24999 35.6408 8.58541 35.6408 11.4583V17.7083C35.6408 18.2833 35.1712 18.75 34.5925 18.75Z"
              fill="#FFE454"/>
        <path d="M24.1099 12.5H11.5308C9.79694 12.5 8.38599 11.0979 8.38599 9.37499V5.20833C8.38599 4.63333 8.85561 4.16666 9.43425 4.16666H12.6839C13.1723 1.79166 15.2877 -7.62939e-06 17.8203 -7.62939e-06C20.3529 -7.62939e-06 22.4683 1.79166 22.9568 4.16666H26.2064C26.785 4.16666 27.2547 4.63333 27.2547 5.20833V9.37499C27.2547 11.0979 25.8437 12.5 24.1099 12.5ZM10.4825 6.24999V9.37499C10.4825 9.94791 10.9521 10.4167 11.5308 10.4167H24.1099C24.6885 10.4167 25.1581 9.94791 25.1581 9.37499V6.24999H22.0134C21.4347 6.24999 20.9651 5.78333 20.9651 5.20833C20.9651 3.48541 19.5541 2.08333 17.8203 2.08333C16.0865 2.08333 14.6755 3.48541 14.6755 5.20833C14.6755 5.78333 14.2059 6.24999 13.6273 6.24999H10.4825Z"
              fill="#FFE454"/>
        <path d="M28.303 18.75H7.33781C6.75917 18.75 6.28955 18.2833 6.28955 17.7083C6.28955 17.1333 6.75917 16.6667 7.33781 16.6667H28.303C28.8816 16.6667 29.3512 17.1333 29.3512 17.7083C29.3512 18.2833 28.8816 18.75 28.303 18.75Z"
              fill="#FFE454"/>
        <path d="M22.0134 25H7.33781C6.75917 25 6.28955 24.5334 6.28955 23.9584C6.28955 23.3834 6.75917 22.9167 7.33781 22.9167H22.0134C22.5921 22.9167 23.0617 23.3834 23.0617 23.9584C23.0617 24.5334 22.5921 25 22.0134 25Z"
              fill="#FFE454"/>
        <path d="M17.8204 31.25H7.33781C6.75917 31.25 6.28955 30.7833 6.28955 30.2083C6.28955 29.6333 6.75917 29.1667 7.33781 29.1667H17.8204C18.399 29.1667 18.8687 29.6333 18.8687 30.2083C18.8687 30.7833 18.399 31.25 17.8204 31.25Z"
              fill="#FFE454"/>
    </g>
</svg>
