<svg width="69" height="21" viewBox="0 0 69 21" fill="none" xmlns="http://www.w3.org/2000/svg">
    <path d="M63.9077 0.299805H59.6077C58.3077 0.299805 57.3077 0.699805 56.7077 1.9998L48.5078 20.6998H54.3078C54.3078 20.6998 55.3078 18.1998 55.5078 17.5998C56.1078 17.5998 61.8077 17.5998 62.6077 17.5998C62.8077 18.2998 63.3078 20.5998 63.3078 20.5998H68.5078L63.9077 0.299805ZM57.1077 13.3998C57.6077 12.1998 59.3078 7.6998 59.3078 7.6998C59.3078 7.7998 59.8078 6.4998 60.0078 5.7998L60.4077 7.5998C60.4077 7.5998 61.5077 12.4998 61.7077 13.4998H57.1077V13.3998Z" fill="white"/>
    <path d="M48.9077 14C48.9077 18.2 45.1077 21 39.2077 21C36.7077 21 34.3078 20.5 33.0078 19.9L33.8078 15.3L34.5078 15.6C36.3078 16.4 37.5077 16.7 39.7077 16.7C41.3077 16.7 43.0078 16.1 43.0078 14.7C43.0078 13.8 42.3077 13.2 40.1077 12.2C38.0078 11.2 35.2077 9.6 35.2077 6.7C35.2077 2.7 39.1077 0 44.6077 0C46.7078 0 48.5077 0.4 49.6077 0.9L48.8078 5.3L48.4077 4.9C47.4077 4.5 46.1077 4.1 44.2077 4.1C42.1077 4.2 41.1077 5.1 41.1077 5.9C41.1077 6.8 42.3077 7.5 44.2077 8.4C47.4077 9.9 48.9077 11.6 48.9077 14Z" fill="white"/>
    <path d="M0.107727 0.499609L0.207727 0.0996094H8.80773C10.0077 0.0996094 10.9077 0.499609 11.2077 1.79961L13.1077 10.7996C11.2077 5.99961 6.80773 2.09961 0.107727 0.499609Z" fill="#F9B50B"/>
    <path d="M25.2077 0.300195L16.5077 20.6002H10.6077L5.60773 3.6002C9.20773 5.9002 12.2077 9.5002 13.3077 12.0002L13.9077 14.1002L19.3077 0.200195H25.2077V0.300195Z" fill="white"/>
    <path d="M27.5078 0.200195H33.0078L29.5078 20.6002H24.0078L27.5078 0.200195Z" fill="white"/>
</svg>
